<svg xmlns="http://www.w3.org/2000/svg" viewBox="0 0 430 430">
  <g style="isolation: isolate">
    <g id="Warstwa_1" data-name="Warstwa 1">
      <g>
        <path d="M215,329.06,33.93,251.5,215,173.94,396.07,251.5Z" style="fill: #ebe6ef"/>
        <path d="M375.46,242.56,215.66,311.3a1.88,1.88,0,0,1-.74.15,1.93,1.93,0,0,1-.75-.15L54.41,242.54l159.78-68.36a1.84,1.84,0,0,1,1.49,0Z" style="fill: #ebe6ef;opacity: 0.5;mix-blend-mode: multiply"/>
        <path d="M215,332.56a3.48,3.48,0,0,1-1.38-.28L32.55,254.72a3.51,3.51,0,0,1,0-6.44l181.07-77.56a3.48,3.48,0,0,1,2.76,0l181.07,77.56a3.51,3.51,0,0,1,0,6.44L216.38,332.28A3.48,3.48,0,0,1,215,332.56ZM42.82,251.5,215,325.25,387.18,251.5,215,177.74Z" style="fill: #121331"/>
        <path d="M215,292.56,33.93,215,215,137.44,396.07,215Z" style="fill: #2ca58d"/>
        <path d="M375.54,206.21,215.75,274.94a1.8,1.8,0,0,1-.75.15,1.72,1.72,0,0,1-.74-.15L54.5,206.19l159.78-68.37a1.84,1.84,0,0,1,1.49,0Z" style="fill: #2ca58d;opacity: 0.5;mix-blend-mode: multiply"/>
        <path d="M215,296.06a3.48,3.48,0,0,1-1.38-.28L32.55,218.22a3.51,3.51,0,0,1,0-6.44l181.07-77.56a3.48,3.48,0,0,1,2.76,0l181.07,77.56a3.51,3.51,0,0,1,0,6.44L216.38,295.78A3.48,3.48,0,0,1,215,296.06ZM42.82,215,215,288.75,387.18,215,215,141.24Z" style="fill: #121331"/>
        <path d="M215,256.06,33.93,178.5,215,100.94,396.07,178.5Z" style="fill: #ebe6ef"/>
        <path d="M215,259.56a3.48,3.48,0,0,1-1.38-.28L32.55,181.72a3.51,3.51,0,0,1,0-6.44L213.62,97.72a3.48,3.48,0,0,1,2.76,0l181.07,77.56a3.51,3.51,0,0,1,0,6.44L216.38,259.28A3.48,3.48,0,0,1,215,259.56ZM42.82,178.5,215,252.26,387.18,178.5,215,104.75Z" style="fill: #121331"/>
      </g>
    </g>
  </g>
</svg>
